<?xml version="1.0" encoding="utf-8"?>
<!-- Generator: Adobe Illustrator 25.4.1, SVG Export Plug-In . SVG Version: 6.00 Build 0)  -->
<svg version="1.1" id="Layer_1" xmlns="http://www.w3.org/2000/svg" xmlns:xlink="http://www.w3.org/1999/xlink" x="0px" y="0px"
	 viewBox="0 0 270 74" style="enable-background:new 0 0 270 74;" xml:space="preserve">
<style type="text/css">
	.st0{fill:#FFE200;}
	.st1{fill-rule:evenodd;clip-rule:evenodd;fill:#FFE200;}
	.st2{fill-rule:evenodd;clip-rule:evenodd;}
	.st3{fill-rule:evenodd;clip-rule:evenodd;fill:#FFF000;}
</style>
<path class="st0" d="M170.5,42.4c0.5,1.1-0.4,1.8-2.8,2.2c-2.3,0.4-4.4,0.6-6.5,0.6c-1.8-1.6-4-3.2-6.9-4.6
	c-2.7-1.5-4.2-2.2-4.4-2.2c0.4,0.8,0.8,1.5,1.2,2.2s0,1.3-1.2,1.8c-1.6,1.6-3.1,2.7-4.4,3.2c-1.2,0.7-1.5-0.4-0.8-3.2
	c1.6-1.3,2.8-2.7,3.6-4c-0.7-0.1-1.5,0.4-2.4,1.6c-0.8,1.1-1.6,1.8-2.4,2c-0.7,0.5-1.6,1.4-2.8,2.6c-1.2,1.2-1.9,2-2,2.2
	c-1.8,1.3-2.8,1.6-3.2,0.8c-0.5-0.8-0.3-1.9,0.8-3.2c1.5-1.6,3-3.2,4.4-4.6c1.5-1.5,2.3-2.2,2.4-2.2c0.1-0.5,0.1-0.9,0-1.2V36
	c-0.8,1.2-1.8,1.6-2.8,1.2c-1.1-0.4-1.8-1.8-2-4c-0.8,1.6-2,4.4-3.6,8.5c-1.5,3.9-3.5,7.3-6.1,10.1c-2.2,1.5-3.5,2-4,1.4
	c-0.7-0.5-0.5-1.5,0.4-3c3.2-4.8,6.1-10,8.5-15.6c2.3-5.7,3.5-8.7,3.6-9.1c0.3-2,0.8-2.4,1.6-1.2c0.9,1.1,1.5,1.9,1.6,2.4
	c0.4,0.9,0.5,1.6,0.2,1.8l-0.6,0.6c-0.1,0.1-0.3,0.5-0.4,1c-0.1,0.4-0.3,0.7-0.4,1c0.4-0.4,0.9-0.3,1.4,0.2c0.4,0.4,0.9,0.9,1.4,1.4
	c0.4-0.3,0.7-0.5,1-0.8s0.5-0.4,0.6-0.4c-0.1-1.1-0.2-1.8-0.2-2.2c-0.1-0.5-0.2-0.7-0.2-0.6c-1.2-1.1-1.8-2-1.6-2.8
	c0.3-0.8,1.2-1.2,2.8-1.2c0.9,0.1,1.7,0.4,2.2,0.8s0.9,0.7,1,0.8c1.8-1.8,3.7-3,5.9-3.8c2.2-0.9,3.7-1,4.6-0.2
	c1.3,0.4,2.2,1,2.6,1.8c0.3,0.8-0.1,1.8-1,3c-0.7,1.6-1.4,3.2-2.2,4.6c-0.7,1.3-1,2.1-1,2.2c0,1.7-0.5,2.5-1.6,2.2
	c-1.1-0.3-1.8-1.1-2-2.6l-2,1.6c2.4,0.8,4.6,1.8,6.7,3c1.9,1.1,2.9,1.7,3,1.8c2.8,0.3,5.2,0.7,7.1,1.2
	C169.3,41.9,170.3,42.3,170.5,42.4z M155.9,16.6c1.2,1.5,1.4,2.4,0.6,2.8s-1.5,0.8-2.2,1.2c-1.5,0.3-3,0.7-4.6,1.2
	c-1.6,0.5-2.5,1.2-2.6,2c-0.3,0.5-0.5,0.6-0.8,0.2c-0.4-0.3-0.9-0.6-1.6-1c-1.8,0.1-3.4-0.4-4.8-1.6c-1.6-1.3-1.6-2.3,0-2.8
	c1.2-0.4,2.3-0.7,3.2-1c0.9-0.1,1.5-0.2,1.6-0.2c0-0.5,0.1-0.9,0.4-1.2c0.1-0.3,0.3-0.4,0.4-0.4c-1.3-1.6-1.3-2.4,0-2.4
	s3,0.8,4.8,2.4c0.9-0.7,2-0.9,3-0.8C154.4,14.9,155.2,15.5,155.9,16.6z M153.5,50.5c0,0.5-0.2,1.1-0.6,1.8c-0.4,0.5-0.6,0.9-0.6,1
	c-1.1,3-2.4,5.3-3.8,6.9c-1.6,1.5-2.5,2.3-2.6,2.4c-1.5,0.1-2.5,0.1-3,0c-0.4-0.3-0.2-0.7,0.6-1.2c1.8-1.5,3.2-3.3,4.4-5.5
	s1.9-3.7,2-4.6c0.4-0.9-0.3-0.8-2.2,0.4c-1.9,1.1-2.8,0.9-2.6-0.4c0-1.3,0.5-2.6,1.6-3.8c0.9-1.2,1.6-2.1,2-2.6
	c0.3-1.1,0.7-1.2,1.4-0.4c0.7,0.8,0.9,1.6,0.6,2.4c-0.1,0.5-0.3,1-0.6,1.4c-0.4,0.3-0.6,0.5-0.6,0.6c0.7-0.3,1.3-0.3,2-0.2
	C152.1,48.8,152.8,49.4,153.5,50.5z M149.5,30.7c-0.3-0.3-0.6-0.7-1-1.2l-0.6-0.8c-0.8,0.7-1.5,1.5-2,2.6c-0.4,1.1-0.7,2.4-0.8,3.8
	c0.3-0.5,1-1.4,2.2-2.6C148.4,31.4,149.2,30.8,149.5,30.7z M155.1,25c-1.8,0.4-3,0.6-3.8,0.6s-1.5,0.5-2.2,1.4
	c1.8,0.1,3,0.7,3.6,1.6c0.8,0.9,1.2,1.5,1.2,1.6c0.5-0.8,0.9-1.9,1-3.2C155,25.8,155.1,25.2,155.1,25z"/>
<path class="st0" d="M214.9,34.7c-2.3,0.4-4.2,0.9-5.9,1.4c-1.5,0.5-2.2,0.9-2.2,1c-1.2,1.1-2.3,2.2-3.2,3.4
	c-1.1,1.3-1.6,2.1-1.6,2.2c0.5-0.1,1.1,0,1.6,0.4c0.4,0.3,0.5,0.8,0.4,1.6c0.5-0.5,1.5-1.3,2.8-2.2s2.7-0.9,4,0.2
	c1.8,0.8,1.8,2,0.2,3.4c-1.6,1.6-3.7,2.4-6.3,2.2l-0.4,5.3c1.9,0.1,3.6,0.1,5.1,0s3,0.5,4.6,2c1.1,1.1,1,2.1-0.2,3
	c-1.1,0.9-2.8,1.4-5.1,1.4c-2.3,0.1-4.4-0.1-6.5-0.8c-2-0.7-3.1-2.7-3.2-6.1l0.4-8.5c-1.6,2.2-3.7,4.8-6.3,8.1
	c-2.7,3.1-4.8,5.4-6.3,6.9c-1.8,1.3-3.4,1.4-5.1,0.2c-1.6-1.3-1.4-2.8,0.6-4.2c1.8-1.3,4.2-3.8,7.5-7.5c3.2-3.8,5.7-6.7,7.5-8.7
	c-4.2,1.2-7.3,2.6-9.3,4c-2,1.5-3.8,1.1-5.3-1.2c-0.5-1.6,0.4-3,2.8-4c2.3-1.2,4.4-2.2,6.5-2.8c0.4-0.9,1.1-1.8,2.2-2.6
	c0.9-0.9,1.4-1.7,1.4-2.2c-1.9-0.9-3.4-2.4-4.6-4.2c-1.1-2-0.6-3,1.4-3c0.4,0.1,1.1-0.1,2-0.6c0.9-0.4,1.8-0.7,2.4-1l0.4-3.2
	c-0.7-1.5-0.1-2.7,1.6-3.6c1.6-0.9,3-0.7,4,0.8c1.6,0.7,3.2,1.9,4.8,3.6c1.6,1.9,1.6,3.5,0,4.8c-0.5,0.1-1,0.3-1.4,0.6
	c-0.4,0.3-0.6,0.5-0.6,0.6c0.5,0.1,1.1,0.3,1.8,0.6c0.7,0.3,1.1,0.7,1.4,1.4c0.8-0.9,1.5-1.6,2.2-2c0.5-0.5,0.9-0.8,1-0.8
	c1.3-0.8,2.6-0.8,3.8,0c1.3,0.8,0.6,2.3-2.2,4.4l0.4,0.8c1.5,0.1,2.5,1,3,2.6C217.9,34.1,217.1,34.9,214.9,34.7z M208,29.1
	c-0.3-0.4-0.8-0.3-1.6,0.4c-0.7,0.5-1.2,0.8-1.6,0.8c-0.9,0.3-1.1,0.1-0.6-0.6c0.4-0.8,0.6-1.8,0.6-3c-0.7,0.4-1.1,1.2-1.2,2.4
	c-0.1,1.1-0.3,1.9-0.4,2.4c0.4,0.1,1.1-0.1,2.2-0.6C206.4,30.5,207.2,29.9,208,29.1z"/>
<path class="st0" d="M258.5,25.4c1.3,1.6,0.6,3.7-2.2,6.3c-2.8,2.4-5.6,4.5-8.3,6.3c-0.9,2.3-1.8,4.6-2.4,7.1
	c-0.7,2.4-1.8,4.5-3.2,6.3c-3.9,2.4-7.3,3.4-10.1,2.8c-2.8-0.4-3.1-1.5-0.8-3.2c1.2-0.8,2.2-1.2,2.8-1.2c0.7-0.1,1.1-0.1,1.2,0
	c2.2-1.6,3.6-3.5,4.2-5.7c0.7-2,1-3.1,1-3.2c-1.9,0.5-3.3,0.3-4.2-0.6c-0.9-1.1-1.4-1.7-1.4-1.8c-1.5-2.4-2-3.9-1.4-4.4
	c0.7-0.5,1.4-0.8,2.2-0.8c1.1-0.7,2.2-1.4,3.4-2.2c1.3-0.7,2.1-1,2.2-1c0.1-1.9,0.1-3.9,0-6.1c0-2.3,0-3.5,0-3.6
	c-0.7-3.4-0.1-4.9,1.6-4.6c1.8,0.3,3.9,1.4,6.5,3.4c1.2,0.9,1.5,2.1,1,3.4c-0.5,1.2-0.9,2.5-1,3.8c1.3-0.8,2.7-1.5,4-2.2
	C255,23.2,256.7,23.7,258.5,25.4z M263.8,50.5c2.6,2.2,3.5,4.1,2.8,5.9c-0.8,1.8-1.9,2.2-3.2,1.4c-0.9-1.3-2-2.4-3.2-3l-2-1
	c-0.1-0.9-1.1-1.8-2.8-2.4c-1.8-0.7-2.6-1.1-2.4-1.2c-0.9-0.5-2.2-1.3-3.8-2.4c-1.6-1.1-2-2-1-2.8c3.6,0,7.1,0.9,10.3,2.6
	C261.7,49.2,263.5,50.2,263.8,50.5z"/>
<path class="st0" d="M86.8,46.5c-0.1-0.3-0.4-0.6-0.6-0.8c-0.2-0.2-0.5-0.4-0.7-0.5c-0.4-0.2-0.8-0.3-1.2-0.4
	c-0.3-0.1-0.7-0.2-1-0.3c-0.5-0.1-1.1,0-1.6,0.1c-0.3,0.1-0.5,0.2-0.8,0.4c-0.3,0.2-0.6,0.4-0.9,0.7c-0.2,0.2-0.3,0.5-0.4,0.8
	c-0.2,0.5-0.2,1-0.1,1.5c0,0.4,0.1,0.7,0.2,1.1c0.1,0.3,0.2,0.6,0.4,0.9c0.2,0.3,0.4,0.5,0.6,0.7c0.2,0.2,0.5,0.4,0.8,0.6
	c0.3,0.2,0.7,0.3,1.1,0.4c0.3,0,0.7,0,1,0c0.3,0,0.6-0.1,1-0.2c0.3-0.1,0.7-0.2,0.9-0.5c0.3-0.2,0.5-0.5,0.8-0.8
	c0.2-0.3,0.4-0.6,0.5-0.9c0.1-0.2,0.2-0.5,0.2-0.8c0.1-0.3,0.1-0.7,0.1-1C86.9,47.1,86.9,46.8,86.8,46.5z M86,48.1
	c0,0.1-0.1,0.2-0.1,0.3s0,0.1-0.1,0.2c0,0.1-0.1,0.1-0.1,0.2c0,0.1-0.1,0.1-0.1,0.2c-0.1,0.1-0.1,0.2-0.2,0.3
	c-0.1,0.1-0.1,0.2-0.2,0.3s-0.3,0.2-0.5,0.3c-0.2,0.1-0.4,0.2-0.5,0.2c-0.1,0-0.1,0-0.2,0s-0.1,0-0.2,0c-0.1,0-0.2-0.1-0.3-0.1
	c-0.1-0.1-0.2-0.2-0.3-0.3c0-0.1-0.1-0.1-0.1-0.2v-0.1c0-0.1,0-0.2-0.1-0.3c0,0,0-0.1,0-0.2c0-0.1,0-0.1,0-0.2c0-0.3,0-0.6,0-0.8
	c0-0.1,0-0.2,0-0.2c0-0.1,0-0.1,0.1-0.2c0-0.1,0.1-0.3,0.2-0.4c0-0.1,0.1-0.2,0.1-0.2l0,0c0.1-0.1,0.2-0.1,0.3-0.2h0.1
	c0,0,0,0,0.1,0H84c0.1,0,0.2,0,0.3,0c0.1,0,0.2,0,0.3,0.1c0.1,0,0.2,0.1,0.2,0.1c0.1,0,0.2,0.1,0.3,0.1c0.1,0,0.1,0,0.2,0.1
	c0.1,0,0.2,0.1,0.2,0.1c0.1,0.1,0.3,0.2,0.4,0.3l0.1,0.1c0,0,0,0,0,0.1c0,0,0,0,0,0.1c0,0,0,0.1,0,0.2C86,48.1,86,48.1,86,48.1
	C86,48,86,48,86,48.1z"/>
<path class="st0" d="M91.9,50.8c0.2-0.1,0.3-0.3,0.5-0.3c0.2-0.1,0.4-0.1,0.7-0.1c0.2,0,0.4-0.1,0.5-0.1c0.4-0.1,0.8-0.2,1.2-0.4
	c0.3-0.1,0.6-0.3,0.9-0.5c0.3-0.2,0.7-0.3,1-0.5c0.2-0.1,0.4-0.1,0.5-0.3c0.1-0.1,0.1-0.2,0.1-0.3S97.1,48.1,97,48c0,0-0.1,0-0.2,0
	c-0.2,0-0.4,0-0.5,0c-0.2,0.1-0.4,0.3-0.7,0.4c-0.4,0.3-0.9,0.4-1.5,0.5s-1.1,0.2-1.7,0.4c-0.3,0.1-0.6,0.2-0.8,0.2s-0.4,0-0.6-0.1
	c-0.1,0-0.3-0.1-0.4-0.2c-0.4-0.2-0.7-0.3-1.1-0.4c-0.4,0-0.7,0.1-1.2,0.1c-0.2,0-0.5,0-0.6,0.1c-0.1,0.1-0.2,0.2-0.3,0.4
	c-0.1,0.2-0.2,0.4-0.2,0.5c-0.1,0.2-0.2,0.3-0.2,0.5s0.1,0.5,0.2,0.6c0.1,0.2,0.3,0.3,0.5,0.4c0.2,0.1,0.4,0.2,0.6,0.2
	c0.2,0.1,0.5,0.2,0.7,0.3c0.2,0.1,0.4,0.1,0.5,0.2c0.2,0.1,0.3,0.3,0.4,0.5c0.1,0.2,0.2,0.3,0.3,0.5s0.2,0.4,0.3,0.5
	c0.1,0.2,0.2,0.3,0.3,0.5c0.1,0.1,0.3,0.2,0.4,0.2c0.2,0.1,0.4,0.2,0.6,0.2c0.2,0.1,0.5,0.2,0.7,0.2c0.1,0,0.2,0,0.2-0.1
	s0-0.1,0-0.2c0-0.2-0.1-0.4-0.2-0.5c-0.1-0.2-0.3-0.4-0.5-0.5c-0.2-0.2-0.3-0.4-0.4-0.7s-0.2-0.5-0.2-0.8s0-0.6,0.2-0.8
	C91.7,51.1,91.8,51,91.9,50.8z"/>
<path class="st0" d="M96.8,53.4c-0.2-0.1-0.5-0.2-0.7-0.3c-0.2-0.1-0.4-0.2-0.6-0.3c-0.2-0.1-0.4-0.1-0.6-0.2
	c-0.2,0-0.3-0.1-0.5-0.2c-0.1,0-0.2-0.1-0.3-0.1s-0.2,0-0.3,0l-0.1,0.1c-0.1,0.2,0,0.5,0.2,0.7c0.2,0.2,0.3,0.4,0.5,0.5
	c0.2,0.2,0.5,0.3,0.8,0.5c0.2,0.1,0.5,0.2,0.8,0.2c0.2,0,0.5,0,0.7,0c0.2,0,0.3-0.1,0.5-0.2c0.1-0.1,0.2-0.1,0.2-0.2
	c0-0.1-0.1-0.3-0.2-0.4C97,53.6,96.9,53.5,96.8,53.4z"/>
<path class="st0" d="M98.4,50.4c-0.1-0.2-0.3-0.4-0.5-0.5c-0.2-0.1-0.5-0.1-0.8-0.1c-0.3,0-0.5,0-0.8,0.1c-0.2,0.1-0.4,0.2-0.5,0.3
	s-0.1,0.1-0.2,0.2c-0.1,0.1-0.1,0.3-0.1,0.4c0,0.3,0.1,0.6,0.2,0.8c0.2,0.3,0.4,0.5,0.6,0.7c0.2,0.2,0.5,0.3,0.8,0.4
	c0.2,0,0.4,0,0.6,0c0.2,0,0.4-0.1,0.6-0.2c0.2-0.1,0.3-0.3,0.4-0.4c0.1-0.2,0.1-0.5,0.1-0.8C98.7,50.9,98.5,50.7,98.4,50.4z
	 M97.5,51c0,0.1-0.1,0.2-0.2,0.3c-0.1,0.1-0.2,0.1-0.3,0.2c-0.2,0-0.5,0-0.6-0.1c-0.2-0.1-0.3-0.2-0.4-0.4c-0.1-0.1-0.1-0.3-0.1-0.4
	c0-0.1,0.1-0.2,0.1-0.3c0.1-0.1,0.3-0.1,0.4-0.1c0.1,0,0.3,0,0.4,0c0.1,0,0.1,0,0.2,0s0.2,0,0.2,0.1c0.1,0.1,0.3,0.2,0.3,0.3
	C97.5,50.7,97.5,50.8,97.5,51z"/>
<path class="st0" d="M98.6,41.3c-0.2-0.4-0.3-0.8-0.6-1.1c-0.3-0.4-0.6-0.7-1-0.9s-0.8-0.4-1.3-0.6c-0.6-0.2-1.2-0.5-1.8-0.6
	c-0.5-0.1-1.1-0.2-1.6-0.2c-0.3,0-0.5,0-0.8,0c-0.8,0-1.6,0.1-2.4,0.3c-0.5,0.2-1,0.5-1.5,0.8c-0.2,0.2-0.5,0.4-0.6,0.6
	c-0.2,0.2-0.3,0.5-0.4,0.8c-0.2,0.7-0.2,1.5-0.1,2.2s0.2,1.4,0.4,2c0.2,0.4,0.4,0.8,0.6,1.2c0.3,0.5,0.6,1.1,1,1.5
	c0.3,0.3,0.6,0.6,0.9,0.8c0.4,0.2,0.8,0.4,1.2,0.5c0.7,0.2,1.4,0.2,2.1,0.1c0.5-0.1,0.9-0.2,1.4-0.3c0.6-0.2,1.1-0.4,1.6-0.7
	c0.4-0.3,0.8-0.6,1.2-0.9c0.5-0.4,0.9-0.8,1.3-1.3c0.3-0.4,0.5-0.8,0.7-1.2c0.2-0.3,0.3-0.7,0.3-1C99.1,42.7,98.8,42,98.6,41.3z
	 M93,47.3c-0.1,0-0.2,0-0.3,0s-0.3,0-0.4,0c-0.1,0-0.3,0-0.4,0s-0.2,0-0.3-0.1c-0.1,0-0.1,0-0.2-0.1h-0.1h-0.1
	c-0.1,0-0.1-0.1-0.2-0.2l-0.1-0.1l-0.1-0.1l-0.1-0.1c-0.1-0.1-0.1-0.2-0.2-0.2c0,0,0,0,0-0.1v-0.1c0-0.1,0-0.1,0-0.2v-0.1l0,0l0,0
	h0.1l0,0l0,0l0,0h0.1c0.1,0,0.1,0,0.2,0H91h0.1c0.1,0,0.1,0,0.2,0c0.1,0,0.2,0,0.2,0h0.1h0.1c0.1,0,0.1,0,0.2,0c0,0.1,0,0.1,0.1,0.2
	c0,0,0,0.1,0.1,0.1c0,0,0,0.1,0.1,0.1c0,0,0,0.1,0.1,0.2c0,0.1,0.1,0.1,0.1,0.2c0,0.1,0.1,0.1,0.1,0.2l0.1,0.1
	c0.1,0,0.1,0.1,0.2,0.1C92.9,47.2,93,47.2,93,47.3c0.1-0.1,0.1-0.1,0.1,0c0,0,0,0,0.1,0c0,0,0,0,0.1,0C93.2,47.3,93.1,47.3,93,47.3z
	 M97.4,44.5c-0.1,0.2-0.3,0.4-0.4,0.6c-0.1,0.2-0.3,0.3-0.5,0.5c-0.1,0.1-0.2,0.2-0.3,0.3c-0.1,0.1-0.2,0.2-0.3,0.2
	c-0.1,0.1-0.2,0.2-0.3,0.3c-0.1,0.1-0.2,0.2-0.3,0.2c-0.1,0.1-0.3,0.2-0.4,0.2c-0.1,0-0.2,0.1-0.3,0.1c0,0,0-0.1,0.1-0.1
	c0,0,0,0,0-0.1c0,0,0,0,0-0.1c0,0,0,0,0-0.1c0,0,0.1-0.1,0.1-0.2c0-0.1,0.1-0.1,0.1-0.2V46v-0.1c0-0.1,0-0.2,0-0.3s0-0.2,0-0.2
	s0,0,0-0.1l0,0l0,0v-0.1c0-0.1,0-0.1,0-0.2c0-0.1,0-0.1,0-0.2c0.1,0,0.2,0,0.2,0c0.1,0,0.1,0,0.2,0c0.1,0,0.1,0,0.2,0s0.2,0,0.3-0.1
	c0.1,0,0.2,0,0.3-0.1c0.1,0,0.2,0,0.2-0.1c0.1,0,0.1,0,0.2,0h0.1h0.1c0.1,0,0.2,0,0.2-0.1C97.1,44.5,97.2,44.5,97.4,44.5
	c0-0.1,0.1-0.2,0.1-0.2C97.5,44.4,97.4,44.5,97.4,44.5z M97.7,42.6L97.7,42.6c-0.2-0.2-0.2-0.2-0.3-0.2c-0.1-0.1-0.2-0.1-0.3-0.1
	s-0.2,0-0.2,0c-0.2,0-0.3,0-0.4,0h-0.1h-0.1h-0.1c-0.1,0-0.1,0-0.2,0c-0.1,0-0.2,0-0.3,0.1c-0.1,0-0.1,0-0.1,0c-0.1,0-0.3,0-0.4,0
	h-0.1H95h-0.1l0,0v-0.1v-0.1c0-0.1,0-0.1,0-0.2c0-0.1,0-0.1,0-0.2v-0.1c0,0,0-0.1-0.1-0.1l-0.1-0.1l-0.1-0.1
	c-0.1-0.1-0.2-0.1-0.3-0.1s-0.2-0.1-0.3-0.1c-0.1,0-0.2,0-0.3,0c-0.2,0-0.3,0.1-0.4,0.1c-0.1,0.1-0.3,0.1-0.4,0.2
	c-0.1,0.1-0.2,0.1-0.2,0.2l-0.1,0.1l-0.1,0.1c0,0.1-0.1,0.1-0.1,0.2c0,0.1,0,0.2-0.1,0.2c0,0.1,0,0.2,0,0.2v0.1v0.1v0.1
	c0,0.1,0,0.2-0.1,0.3c0,0.1,0,0.1,0,0.2v0.1v0.1v0.1c0,0.1,0,0.1,0,0.1s-0.1,0-0.2,0h-0.1h-0.1c-0.1,0-0.1,0-0.2,0
	c-0.1,0-0.2,0-0.3,0s-0.2,0-0.3,0s-0.1,0-0.2,0s-0.1,0-0.2,0h-0.1c-0.1,0-0.1,0-0.2,0l0,0l0,0c0,0,0,0,0-0.1c0,0,0,0,0-0.1v-0.1
	c0-0.1,0-0.3,0.1-0.5c0-0.2,0.1-0.3,0.1-0.5c0.1-0.3,0.2-0.5,0.3-0.7c0.1-0.1,0.1-0.2,0.2-0.3l0.1-0.1c0.1-0.1,0.2-0.2,0.4-0.3
	c0.1,0,0.2-0.1,0.2-0.1c0.2-0.1,0.5-0.2,0.7-0.3c0.1,0,0.3-0.1,0.4-0.1s0.1,0,0.2,0c0.1,0,0.1,0,0.2,0s0.2,0,0.3,0
	c0.2,0,0.4,0,0.5,0c0.1,0,0.2,0,0.3,0s0.2,0,0.3,0c0.3,0,0.5,0,0.7,0c0.2,0,0.4,0,0.6,0.1c0.2,0,0.3,0.1,0.5,0.1
	c0.1,0,0.2,0.1,0.2,0.1c0.1,0,0.1,0.1,0.2,0.1C96.9,41,97,41,97,41.1c0.1,0.1,0.2,0.2,0.2,0.2c0.1,0.1,0.2,0.2,0.2,0.3
	s0.1,0.1,0.1,0.2c0,0.1,0,0.1,0.1,0.2c0,0.1,0,0.1,0,0.2C97.8,42.5,97.8,42.6,97.7,42.6C97.8,42.7,97.7,42.6,97.7,42.6z"/>
<path class="st0" d="M99.5,5.7c0-0.2-0.1-0.3-0.2-0.5C99.2,5.1,99.1,5,98.9,5c-0.2-0.1-0.4-0.2-0.6-0.2c-0.3-0.1-0.6-0.1-0.8-0.2
	c-0.4-0.1-0.8-0.1-1.1-0.2c-0.4,0-0.7-0.1-1.1-0.1c-0.3,0-0.7-0.1-1-0.1c-0.7,0-1.4,0.1-2,0.1c-0.3,0-0.7,0-1,0.1
	c-0.3,0-0.6,0.1-0.9,0.2c-0.3,0.1-0.5,0.1-0.8,0.2C89.4,4.9,89.2,5,89,5c-0.2,0.1-0.4,0.2-0.5,0.3c-0.1,0.1-0.2,0.2-0.3,0.2
	c-0.1,0-0.2,0.1-0.3,0c-0.1,0-0.2-0.1-0.3-0.2s-0.1-0.1-0.1-0.2s0-0.2,0-0.3c0,0,0-0.1-0.1-0.1c-0.3-0.2-0.6-0.4-0.8-0.6
	c-0.3-0.2-0.6-0.5-0.9-0.7c-0.3-0.2-0.5-0.3-0.8-0.5c-0.2-0.1-0.5-0.2-0.7-0.3c-0.2-0.1-0.4-0.1-0.7-0.1c-0.2,0-0.4,0-0.6,0
	c-0.2,0-0.5,0.1-0.7,0.1c-0.5,0.2-0.7,0.3-0.8,0.4c-0.2,0.1-0.3,0.2-0.3,0.4c-0.1,0.1-0.2,0.3-0.3,0.4c0,0.2-0.1,0.3-0.1,0.5
	c0,0.2,0,0.4,0.1,0.5C80.9,5,81,5.1,81.1,5.2c0.1,0.2,0.3,0.3,0.5,0.4C81.8,5.8,82,6,82.2,6.1c0.2,0.1,0.4,0.2,0.6,0.3
	c0.3,0.1,0.5,0.2,0.8,0.3c0.2,0.1,0.5,0.2,0.7,0.2c0.2,0.1,0.4,0.2,0.6,0.3c0.1,0.1,0.3,0.1,0.4,0.2c0.1,0.1,0.3,0.2,0.4,0.3
	c0.1,0.1,0.1,0.2,0.2,0.3c0,0.1,0.1,0.2,0.1,0.4c0,0.1,0,0.3-0.1,0.4C85.8,8.9,85.7,9,85.6,9c-0.1,0.1-0.2,0.1-0.3,0.2
	c-0.1,0.1-0.1,0.2-0.1,0.2c0,0.1,0,0.2,0.1,0.3c0.1,0.1,0.1,0.2,0.2,0.4c0.1,0.1,0.1,0.2,0.1,0.3s0,0.2,0,0.3s-0.1,0.2-0.2,0.4
	c-0.1,0.1-0.2,0.2-0.3,0.3s-0.2,0.2-0.3,0.3c-0.1,0.2-0.2,0.4-0.2,0.7c0,0.2,0,0.5,0.1,0.6c0.1,0.1,0.1,0.1,0.2,0.2
	c0.1,0.1,0.2,0.2,0.4,0.2c0.1,0.1,0.3,0.1,0.4,0c0.2,0,0.3-0.2,0.4-0.3s0.2-0.2,0.3-0.4c0.1-0.2,0.1-0.4,0.1-0.6c0-0.2,0-0.4,0-0.6
	c0-0.2-0.1-0.4-0.2-0.6c-0.1-0.1-0.2-0.2-0.2-0.4c-0.1-0.1-0.2-0.2-0.2-0.2c-0.1-0.1-0.1-0.2-0.2-0.3c0-0.1,0-0.3,0-0.4
	c0-0.1,0.1-0.2,0.2-0.3s0.1-0.2,0.2-0.2c0.1-0.1,0.3-0.2,0.4-0.3s0.3-0.2,0.4-0.3c0.2-0.1,0.3-0.2,0.5-0.3C87.7,8,87.9,7.9,88,7.9
	s0.1,0,0.2,0c0.1,0,0.3,0,0.4,0s0.3,0,0.4,0c0.2,0,0.4,0,0.6,0.1c0.2,0,0.3,0,0.5,0c0.1,0,0.1,0,0.2,0.1l0.1,0.1
	c0,0.1-0.1,0.2-0.2,0.2C90,8.6,89.9,8.8,89.8,9c-0.1,0.2-0.2,0.3-0.3,0.5s-0.2,0.3-0.3,0.5c-0.1,0.2-0.1,0.4-0.2,0.5
	c-0.1,0.3-0.1,0.5-0.1,0.8c0,0.2,0,0.5,0,0.7c0,0.3,0.1,0.6,0.3,0.9c0.1,0.2,0.3,0.3,0.5,0.5c0.2,0.2,0.4,0.3,0.6,0.5
	c0.2,0.2,0.4,0.3,0.6,0.4c0.2,0.1,0.4,0.1,0.6,0.1c0.3,0.1,0.6,0.1,0.9,0.1c0.2,0,0.5,0,0.7-0.1c0.3,0,0.6-0.1,0.9-0.2
	c0.2-0.1,0.4-0.2,0.5-0.3c0.2-0.1,0.4-0.3,0.5-0.4c0.2-0.2,0.4-0.4,0.5-0.6c0.1-0.2,0.2-0.5,0.2-0.7c0.1-0.4,0.1-0.7,0.1-1.1
	c0-0.3-0.1-0.6-0.2-0.9c-0.1-0.2-0.2-0.4-0.3-0.6C95.2,9.4,95,9.2,94.8,9c-0.2-0.2-0.3-0.4-0.5-0.5c-0.1-0.1-0.3-0.2-0.4-0.3
	c0-0.1-0.1-0.2-0.1-0.2c0-0.1,0.2-0.1,0.3-0.2c0.2,0,0.3,0,0.5,0c0.2,0,0.4,0,0.6,0c0.2,0,0.3,0,0.5,0c0.1,0,0.3,0,0.4,0
	c0.1,0,0.2,0,0.4,0c0.1,0,0.2,0.1,0.2,0.1c0.1,0.1,0,0.3,0,0.4s0,0.2,0,0.3c0,0.2,0,0.4-0.1,0.6c0,0.2-0.1,0.5-0.1,0.7s0,0.5,0,0.7
	s0,0.4,0,0.6c0,0.2,0,0.4,0,0.5c0,0.2,0,0.4,0,0.6c0,0.2,0.1,0.5,0.1,0.7s0,0.4,0.1,0.6c0,0.1,0.1,0.2,0.1,0.4c0,0.1,0,0.1,0.1,0.2
	H97c0.1,0,0.1-0.1,0.1-0.2c0.1-0.2,0.2-0.4,0.2-0.6c0.1-0.3,0.2-0.6,0.3-0.9c0.1-0.3,0.1-0.7,0.2-1s0.1-0.6,0.1-0.9
	c0-0.2,0.1-0.5,0.1-0.7c0-0.3,0.1-0.6,0.1-0.9c0-0.3,0-0.6-0.1-0.8c0-0.1-0.1-0.2-0.1-0.3c0-0.1,0-0.2,0-0.2s0.1,0,0.1-0.1
	c0.1,0,0.2,0,0.2,0c0.1,0,0.2,0,0.3-0.1s0.2-0.2,0.2-0.3C98.8,7.1,98.9,7,99,6.8c0.1-0.1,0.1-0.2,0.2-0.3c0.1-0.1,0.1-0.3,0.2-0.4
	C99.5,6.2,99.5,5.9,99.5,5.7z M93.8,10.3C93.8,10.4,93.9,10.4,93.8,10.3c0.1,0,0.2,0,0.2,0.1c0.1,0,0.1,0.1,0.2,0.1
	c0,0,0.1,0,0.1,0.1c0,0,0.1,0,0.1,0.1l0.1,0.1l0.1,0.1l0.1,0.1c0,0,0,0,0,0.1c0,0,0,0.1,0.1,0.2c0,0.1,0,0.1,0,0.2
	c0,0.1,0,0.2,0,0.3v0.1V12c0,0.1,0,0.1,0,0.2v0.1v0.1c0,0.1-0.1,0.2-0.1,0.2c0,0.1-0.1,0.1-0.2,0.2l-0.1,0.1c0,0,0,0-0.1,0
	c0,0,0,0-0.1,0h-0.1c-0.1,0-0.1,0-0.2,0.1h-0.1c-0.2,0-0.4,0-0.5,0c-0.2,0-0.3,0-0.5-0.1c-0.1,0-0.2-0.1-0.3-0.1s-0.1-0.1-0.2-0.1
	c-0.1,0-0.1-0.1-0.1-0.1c-0.1-0.1-0.1-0.1-0.2-0.2l-0.1-0.1c0,0,0-0.1-0.1-0.1c0-0.1-0.1-0.1-0.1-0.2c0-0.1,0-0.1,0-0.2
	c0-0.1,0-0.2,0-0.3s0-0.1,0.1-0.2c0-0.1,0.1-0.1,0.1-0.2c0.1-0.2,0.2-0.3,0.2-0.4l0.1-0.1l0.1-0.1c0,0,0,0,0.1,0c0,0,0.1,0,0.1-0.1
	c0.1,0,0.1,0,0.2-0.1l0,0c0.1,0,0.3-0.1,0.4-0.1c0.1,0,0.2,0,0.3-0.1c0.1,0,0.1,0,0.2,0C93.7,10.3,93.7,10.3,93.8,10.3z"/>
<path class="st1" d="M82.8,23c-0.3,0.3-0.6,0.5-0.7,0.8c-0.3,0.6,0,1.4-0.3,2.1c0,0,0,0,0,0.1c-0.1,0.1-0.2,0.2-0.3,0.2
	c-0.2,0.1-0.3,0.2-0.5,0.3c-0.1,0.1-0.3,0.2-0.4,0.2c-0.1,0.1-0.2,0.1-0.4,0.2c-0.1,0.1-0.3,0.3-0.3,0.4c-0.1,0.1-0.1,0.3-0.1,0.5
	c0,0.1,0,0.3,0,0.4s0.1,0.1,0.1,0.2c0.1,0,0.2,0.1,0.3,0.1c0.1,0,0.2,0,0.4,0c0.2,0,0.3,0,0.5-0.1c0.1-0.1,0.2-0.1,0.3-0.1l0.1,0.1
	c0.1,0.1,0.1,0.3,0.1,0.4c0,0.3,0,0.5,0.1,0.8c0,0.2,0,0.3,0.1,0.5c0,0.2,0.1,0.3,0.1,0.5c0.1,0.2,0.1,0.3,0.2,0.5
	c0.1,0.2,0.2,0.4,0.4,0.6c0.1,0.2,0.3,0.3,0.4,0.4c0.1,0.1,0.3,0.2,0.4,0.3c0.2,0.1,0.4,0.2,0.6,0.3c0.2,0.1,0.4,0.1,0.7,0.2
	c0.2,0,0.4,0.1,0.6,0.1c0.3,0,0.5-0.1,0.8-0.1c0.2,0,0.3-0.1,0.5-0.2c0.1,0,0.2-0.1,0.2-0.1h0.1c0.1,0,0.1,0.1,0.1,0.1s0,0.1,0,0.2
	c0,0.1-0.1,0.2-0.1,0.2c0,0.1,0,0.1,0.1,0.2c0,0.1,0.1,0.2,0.1,0.3l0.1,0.1c0.1,0,0.1,0.1,0.2,0.1s0.2,0,0.3-0.1
	c0.1-0.1,0.2-0.2,0.3-0.3s0.2-0.2,0.3-0.4c0.1-0.1,0.2-0.3,0.3-0.4c0.1-0.2,0.2-0.4,0.3-0.5c0.1-0.1,0.2-0.3,0.2-0.4s0-0.1,0-0.2
	c-0.1-0.1-0.1-0.2-0.2-0.3c-0.1-0.1-0.2-0.3-0.3-0.4c-0.1-0.2-0.2-0.4-0.2-0.5c-0.1-0.3-0.1-0.6-0.1-0.8c0-0.3,0-0.6,0-0.9
	s0-0.6,0-0.9s0.1-0.5,0.1-0.8c0-0.2,0.1-0.4,0.2-0.6c0-0.1,0.1-0.2,0.2-0.2c0.1-0.1,0.1-0.1,0.2-0.2c0.1,0,0.2-0.1,0.3-0.1
	s0.2,0,0.3,0s0.2,0,0.2,0c0.1,0,0.1,0.1,0.2,0.1S90,26,90,26s0.1,0.1,0.1,0.2S90,26.3,90,26.4s-0.1,0.1-0.1,0.2s-0.1,0.1-0.1,0.2
	s-0.1,0.1-0.1,0.2s0.1,0.1,0.1,0.2c0.1,0,0.1,0.1,0.2,0.1c0.1,0,0.2,0.1,0.2,0.2c0,0,0,0.1,0,0.2s0,0.2,0,0.2c0,0.3-0.1,0.5-0.1,0.8
	c0,0.4,0,0.7,0,1.1c0,0.3,0,0.6,0,0.9s0,0.6,0,0.9c0,0.4,0,0.8,0.1,1.2c0.1,0.3,0.2,0.7,0.3,1c0.1,0.2,0.2,0.4,0.3,0.6
	c0.1,0.2,0.3,0.3,0.4,0.5c0.1,0.1,0.3,0.3,0.4,0.3c0.1,0,0.3,0,0.4,0s0.2,0,0.3,0s0.2-0.1,0.2-0.1c0.1-0.1,0.1-0.2,0-0.3
	c0-0.1-0.1-0.2-0.1-0.3c-0.1-0.2-0.2-0.3-0.3-0.5s-0.3-0.4-0.4-0.7c-0.1-0.3-0.2-0.5-0.2-0.8c-0.1-0.3-0.1-0.6-0.2-0.9
	c0-0.1-0.1-0.3-0.1-0.4v-0.1c0-0.1,0-0.1,0-0.2h0.1h0.1c0.1,0,0.3,0,0.4-0.1c0.2-0.1,0.5-0.1,0.7-0.1c0.2-0.1,0.4-0.1,0.7-0.2
	c0.3-0.1,0.5-0.1,0.8-0.2c0.2-0.1,0.4-0.1,0.6-0.2c0.2-0.1,0.5-0.2,0.7-0.3c0.1-0.1,0.3-0.2,0.4-0.3c0.4-0.3,0.7-0.6,1-0.9
	c0.3-0.3,0.7-0.5,0.9-0.9c0.2-0.3,0.3-0.6,0.5-0.9c0.2-0.4,0.4-0.8,0.4-1.3c0-0.3,0-0.7,0-1s0-0.6,0-1c0-0.3-0.1-0.6-0.3-0.8
	c-0.1-0.3-0.3-0.5-0.5-0.8c-0.3-0.3-0.6-0.7-0.9-0.9c-0.3-0.2-0.7-0.4-1.1-0.5c-0.3-0.1-0.6-0.3-0.9-0.4c-0.1,0-0.2,0-0.3-0.1
	c0,0-0.1,0-0.1-0.1c-0.1-0.1-0.1-0.2-0.1-0.3c-0.1-0.2-0.1-0.5-0.2-0.7c0-0.2-0.1-0.4-0.1-0.6c-0.1-0.2-0.1-0.4-0.2-0.6
	c-0.1-0.1-0.1-0.3-0.2-0.4s-0.2-0.2-0.3-0.3c0.2,0,0,0-0.1,0c-0.1,0-0.2,0-0.2,0c-0.1,0-0.1,0.1-0.1,0.1c0,0.1,0,0.1,0,0.2
	s0,0.3,0.1,0.4c0,0.2,0.1,0.5,0.2,0.7c0.1,0.1,0.1,0.3,0.2,0.4c0,0.1,0.1,0.3,0.1,0.4s0,0.2,0,0.3c0,0.1,0,0.2-0.1,0.3
	c-0.1,0.1-0.2,0.1-0.3,0.1c-0.2,0-0.4,0.1-0.7,0.1c-0.2,0-0.4,0-0.6,0c-0.3,0-0.5,0.1-0.8,0.2c-0.2,0.1-0.3,0.1-0.5,0.2
	c-0.2,0.1-0.4,0.2-0.5,0.4c-0.1,0.1-0.1,0.2-0.2,0.3c0,0.2,0,0.3,0,0.5c0,0.1,0.1,0.3,0.2,0.4s0.1,0.2,0.2,0.3
	c0.1,0.2,0.3,0.4,0.5,0.6c0.1,0.1,0.2,0.3,0.3,0.5c0,0.1,0,0.2,0.1,0.4c0,0.2,0,0.4,0,0.5s-0.1,0.3-0.3,0.4
	c-0.1,0.1-0.3,0.1-0.4,0.1c-0.2,0-0.5,0-0.7,0c-0.2,0-0.4-0.1-0.5-0.1c-0.1,0-0.2-0.1-0.3-0.2s-0.2-0.3-0.3-0.4
	c-0.1-0.1-0.1-0.1-0.2-0.2c0-0.1,0-0.2-0.1-0.3l-0.1-0.1c-0.1,0-0.2,0-0.2,0c-0.1,0-0.2,0.1-0.3,0.2c-0.1,0.1-0.1,0.3-0.1,0.4
	s0,0.2,0,0.4c0,0.1-0.1,0.2-0.2,0.3c-0.1,0.1-0.2,0.2-0.4,0.3c-0.1,0-0.3,0-0.5,0c-0.2,0-0.3,0-0.5,0c-0.1,0-0.3,0-0.4-0.1
	c-0.1,0-0.3-0.1-0.3-0.2s-0.1-0.2-0.1-0.3c0-0.2-0.1-0.3-0.1-0.5c0-0.1,0-0.2-0.1-0.3c0-0.1-0.1-0.3-0.2-0.4s-0.1-0.3-0.2-0.4
	c-0.1-0.1-0.2-0.2-0.3-0.2s-0.3,0-0.4,0s-0.3,0-0.4,0.1C83,22.9,82.9,23,82.8,23z M91.9,23.8c0.3,0,0.7,0,1,0c0.3,0,0.6,0,0.8,0
	c0.2,0,0.4,0.1,0.6,0.2c0.1,0.1,0.2,0.1,0.4,0.2c0.1,0.1,0.2,0.1,0.3,0.2s0.1,0.1,0.1,0.2s0,0.2,0,0.3c-0.1,0.1-0.2,0.2-0.3,0.3
	c-0.1,0.1-0.3,0.2-0.4,0.2c-0.2,0-0.3,0-0.5,0c-0.3,0-0.6,0.1-1,0.1c-0.2,0-0.5,0-0.7,0c-0.1,0-0.2,0-0.3,0s-0.2,0-0.2,0v-0.1
	c0-0.1,0-0.2,0-0.4c0-0.2,0-0.4,0-0.6s0-0.3,0-0.4S91.7,23.8,91.9,23.8C91.8,23.9,91.8,23.9,91.9,23.8
	C91.8,23.9,91.8,23.8,91.9,23.8z M91.6,27.3c0.3,0,0.6-0.1,0.9-0.1c0.2,0,0.5-0.1,0.7-0.1c0.2,0,0.3,0,0.5,0c0.2,0,0.3,0.1,0.5,0.1
	c0.1,0,0.2,0.1,0.3,0.2s0.2,0.2,0.2,0.3c0,0.1,0,0.2,0,0.3c0,0.1,0,0.2,0,0.3c0,0.1-0.1,0.2-0.2,0.4c0,0.1-0.1,0.1-0.1,0.2
	s-0.1,0.1-0.2,0.2s-0.2,0.1-0.3,0.1c-0.1,0.1-0.2,0.1-0.4,0.2c-0.1,0.1-0.3,0.1-0.4,0.1s-0.2,0.1-0.3,0.1c-0.1,0-0.2,0-0.3,0.1
	c-0.1,0-0.2,0-0.3,0.1c-0.1,0-0.2,0-0.3,0s-0.1-0.1-0.1-0.1c-0.1,0-0.1-0.1-0.2-0.1c0-0.1-0.1-0.1-0.1-0.2c0-0.2-0.1-0.4-0.1-0.6
	c0-0.1,0-0.3,0-0.4c0-0.2,0-0.4,0-0.5s0-0.2,0.1-0.3C91.5,27.4,91.6,27.4,91.6,27.3L91.6,27.3z M86.6,27.5c-0.2,0-0.4,0-0.6,0.1
	s-0.5,0.3-0.6,0.5c-0.2,0.3-0.3,0.6-0.4,0.9c0,0.3,0,0.7,0.1,1s0.2,0.5,0.4,0.7c0.1,0.1,0.3,0.3,0.4,0.3s0.2,0.1,0.4,0.1
	c0.1,0,0.1,0.1,0.2,0c0,0,0-0.1,0.1-0.1c0.1-0.2,0.1-0.5,0.1-0.7c0-0.4,0-0.8,0-1.1c0-0.3,0-0.5,0-0.8c0-0.1,0-0.3,0-0.4
	s0-0.2,0-0.3C86.6,27.6,86.6,27.6,86.6,27.5L86.6,27.5L86.6,27.5z M94.8,31.8c-0.1,0.1-0.2,0.2-0.2,0.3c-0.1,0.1-0.2,0.2-0.2,0.4
	c-0.1,0.2-0.1,0.4,0,0.5c0.1,0.2,0.2,0.3,0.4,0.4c0.2,0.1,0.3,0.3,0.5,0.4c0.1,0.1,0.3,0.2,0.4,0.3c0.2,0.1,0.3,0.2,0.5,0.3
	c0.1,0.1,0.3,0.1,0.4,0.2c0.1,0.1,0.2,0.2,0.4,0.2c0.1,0,0.2,0,0.3,0s0.2-0.1,0.3-0.2c0.1-0.1,0.1-0.2,0.1-0.3c0-0.2,0.1-0.4,0-0.5
	c0-0.1-0.1-0.3-0.2-0.4c-0.1-0.1-0.1-0.2-0.2-0.3s-0.2-0.1-0.4-0.2c-0.1,0-0.1-0.1-0.1-0.1c0-0.1,0-0.2,0.1-0.3s0.1-0.2,0.2-0.3
	c0.1-0.1,0.2-0.2,0.3-0.3c0.1-0.1,0.2-0.2,0.2-0.3c0.1-0.1,0.1-0.2,0.1-0.3c0-0.1,0-0.2,0-0.3c0-0.1,0-0.2,0-0.2
	c0-0.1-0.1-0.1-0.1-0.2c-0.2-0.1-0.4-0.1-0.6-0.1c-0.2,0-0.3,0-0.4,0.1c-0.2,0-0.3,0.1-0.4,0.2c-0.2,0.1-0.3,0.2-0.5,0.3
	c-0.1,0.1-0.3,0.2-0.4,0.4C94.9,31.6,94.9,31.7,94.8,31.8z"/>
<path class="st0" d="M91.5,58.6c-0.1-0.4-0.2-0.7-0.4-1.1c-0.1-0.2-0.3-0.4-0.5-0.4c-0.2-0.1-0.4,0-0.6,0c-0.4,0.1-0.8,0.2-1,0.4
	c-0.3,0.3-0.3,0.9-0.4,1.4c0,1.2,0.1,2.3,0.2,3.3c0.1,0.7,0.2,1.4,0.1,2.3c0,0.5-0.1,1,0.2,1.3c0.2,0.2,0.4,0.3,0.6,0.3
	c0.3,0,0.5-0.4,0.6-0.7c0.5-1,0.6-2,0.8-3c0.1-0.6,0.2-1.3,0.3-1.9C91.5,59.9,91.6,59.2,91.5,58.6z"/>
<path class="st0" d="M52.3,68.4c-0.3-0.1-0.7-0.1-1-0.1c-0.3,0.1-0.7,0.2-0.8,0.4c-0.3,0.3-0.3,0.8-0.2,1.3s0.3,0.9,0.7,1.1
	s0.9,0.3,1.3,0.1c0.4-0.2,0.6-0.5,0.7-0.9s0.1-0.8,0-1.2C52.8,68.8,52.6,68.6,52.3,68.4z"/>
<g>
	
		<ellipse transform="matrix(0.9976 -6.942590e-02 6.942590e-02 0.9976 -2.4893 2.6784)" class="st1" cx="37.3" cy="37.2" rx="35.5" ry="35.5"/>
	<path class="st2" d="M37.3,70c18.1,0,32.8-14.7,32.8-32.8S55.4,4.3,37.3,4.3C19.2,4.3,4.5,19,4.5,37.2S19.2,70,37.3,70L37.3,70z
		 M42.4,47.4c-0.9,0.8-2.1,1.4-3.4,1.9c-3,0.6-5.2,0.7-6.4-0.1c-0.9-0.7-1.8-1.3-2.7-1.7c-0.7-0.4-1.1-0.7-1.9-1.6
		c-0.5-0.7-0.9-1.5-1.2-2.3l-0.7-1.9c-0.2-0.4-0.4-0.9-0.6-1.4H6.1c-0.1-1-0.1-2-0.1-3.1c0-17.3,14-31.3,31.3-31.3
		s31.3,14,31.3,31.3c0,1-0.1,2.1-0.1,3.1H48.2c-0.4,1.2-0.8,2.4-1.5,3.3c-1,1.1-1,1.1-2.1,2.1"/>
	<path class="st2" d="M51.4,29.6c0.1,0.2,0,0.6-0.1,0.8c0,0.1-0.1,1.2-0.1,1.2c0.2,0.1,1.1-0.3,1-0.5c0-0.2,0.1-0.5,0-0.8
		c0-0.1,0-0.3,0-0.4c0.1-0.1,0-0.5,0.1-0.6c-0.1-0.2,0.2-1.4-0.5-0.5C51.8,28.9,51.4,29.6,51.4,29.6L51.4,29.6z M39.6,32.6
		c-0.4-0.6-0.5-0.5-1.2-0.6L39.6,32.6z M39.6,32.6l2.2,0.4C41,33.5,40.3,33.2,39.6,32.6L39.6,32.6z M39.6,37.4c-0.4-1-0.3-0.5-1-1.4
		c-0.8-1.2-0.5-1.1-1.2-1.1C38,36.2,38.8,37.5,39.6,37.4L39.6,37.4z M30.3,37.6c0.2-0.3,1.3-2.5,1.3-2.8c-0.8,0-1.1,1-1.3,1.9
		C30.1,37.6,30,37,30.3,37.6L30.3,37.6z M22.2,28.8l0.9,2.7l0.1-3.8C22.6,28.7,23.3,28.1,22.2,28.8L22.2,28.8z M38.2,38.2
		c-0.8,0.9-0.8,0.1-2.5,0.8c-4.5,1.7-7-3.4-2.5-0.9l0,0l0,0c0,0.3,1,0.3,1.2,0.2c0,0,0.4,0,0.6-0.4c0-0.1,0.3-0.1,0.5-0.2
		c0.8-0.1,0.5-0.5,1.6-0.2L38.2,38.2L38.2,38.2z M33.9,28.3c0.6-0.1,1.2-0.1,2.1,0.3l-0.5,1c0.9,0.4,1.3,0.7,1.5,1
		c0.7,0.8,1.1-0.1,2.6,0.4c2.2,0.1,2.2-0.6,3-0.7c0.6-0.1,0.4,0.2,1.4-0.2c-1.2-1.2-4.5-0.7-6.4-0.8c0.2-1,0.5-0.6,3.5-1.8l1.7-0.7
		c0.2,0,0.3,0,0.4,0c0.3-0.1,0.9-0.1,1.2-0.1c0.3,0,0.6,0.5,0.7,0.6c0,0.1,0.2,0.2,0.2,0.2c0,0,0.2,0.3,0.2,0.3
		c0,0.2,0.4,0.4,0.1-0.6c-0.1,0-0.2-0.2-0.2-0.2c-0.2-0.2-0.2-0.7-0.5-0.8c-0.6-0.7-2-1.1-3-0.8c-0.9,0.2-1.6,1.1-2.6,1.4
		c-1.2,0.3-1.9-0.5-3.5,0c-0.7,0.3-0.9,0.6-1.3,0.8l0,0l0,0c0,0,0,0-0.1,0c-0.1,0.1-0.2,0.3-0.3,0.3c0,0.1-0.2,0.2-0.2,0.3
		C34,28.2,33.9,28.3,33.9,28.3L33.9,28.3z M33.1,27.5c0,0.1-0.3,0.6-0.4,0.8c-0.1,0.2-0.1,0.3,0,0.5c0.5,0.8,0.8,1,0.4,1.7
		c-0.2,0.7-0.4,1.1-1.2,1.2l0.8-0.8c-0.8-0.1-1.7-0.2-2.6-0.1c-1.6,0.2-1.7,1.2-3,0.3l-1-0.5c1.3-2,3.8-0.8,5.6-0.8
		c0.1,0,0.4-0.7,0.1-0.8c-0.7-0.9-1.7-0.8-2.9-0.9c-5.7-0.7-2.6,1.1-3.8,2.5c-0.3-0.5-0.1-0.1-0.2-1.3c0-0.6-0.1-0.9-0.1-1.6
		c-0.1-1.2,0.2-1.6,1.2-2.3l6.6,1.6l0.7-0.9C33.2,26.6,33.1,27.1,33.1,27.5L33.1,27.5z M23,27.4c-0.5-0.7-0.4-1.2-0.5-2
		c-0.3-2.3-0.1-2.9-0.3-4.3c-0.1-1.2,0.1-1,0.2-2.3l0.6-3.1l2.7-4.4c0.6-0.5,3.1-1.6,4-1.8c2.2-0.4,0,0,1.3-0.6l4.8-1
		c0.2,0,1.3,0.5,3.8,0.1c1.8-0.3,2.1,0.6,3.4,0.8c0.8,0.1,0.5-0.3,1.6,0.3c0.1,0.1,0.7,0.4,0.9,0.5c1.4,0.6,1.9,1.1,3.1,2.5
		c3.5,3.7,3.1,8.6,3.7,12.3c0.2,1.4-0.3,1.6-0.6,2.1c0,0,0,0.1-0.1,0.1l-0.1,0.5c0,0-0.1,0.2-0.1,0.1c0,0,0,0.1-0.1,0.2
		c-0.3-0.4-0.6-0.9-1-1.4l0.8-0.9c-0.2-0.6-0.5-0.9-0.8-1.5c-0.6-1-1-3.3-2.5-3.8c-1.3-0.4-1.2,0.5-1.9-2.1C45.6,16,45,16,44.7,15.7
		c0-0.1-0.1-0.3-0.2-0.3c-0.6-1-1.8-0.2-2.4-0.3c-0.5,0-1,0-1.5,0.3c-0.6,0.5-1,0.4-2.8,0.3c-2.2-0.1-3.4,1.1-4.6,1.2
		c-1.9,0.1-1.7-0.7-3.7-0.1c-0.6,0.2-2.7-0.2-3.9-0.1c-1.4,0.6-2.4,5.8-2.3,6.4l-0.1,1.4C23,25.9,23,25.7,23,27.4z M29.1,45.1
		c-0.3-0.7-0.3-1.3,0-1.9c0.1-0.2,0.2-0.4,0.3-0.6c0.3-0.4,0.6-0.5,1.1-0.4c0.8,0.2,1.6,0.1,2.3-0.4c0.2-0.1,0.4-0.1,0.6-0.1
		c0.2,0,0.4,0.1,0.6,0.3c0.3,0.2,0.6,0.2,0.9,0c0.5-0.4,1-0.3,1.6-0.1c0.2,0.1,0.3,0.1,0.5,0.2c0.5,0.3,1.1,0.5,1.7,0.5
		c0.1,0,0.2,0,0.2,0c0.7,0.1,1.3,0.3,2,0.4c0,0.6-0.5,1.2-1.2,1.1c-0.6-0.1-1.2-0.1-1.8-0.2c-0.9-0.2-1.7,0-2.5,0
		c-1.2,0.1-2.4,0.2-3.6,0c-0.6-0.1-1.1,0.2-1.6,0.4c-0.3,0.2-0.5,0.4-0.8,0.5C29.3,45,29.2,45.1,29.1,45.1z M40.2,38.9
		c0.1,0.1,0.2,0.1,0.2,0.2c0.8,0.8,1.5,1.8,1.8,2.9c0.1,0.2,0.1,0.5,0.1,0.7c0,0.9,0,1.7,0,2.6c0,0.2-0.1,0.5-0.2,0.7
		c0,0.1-0.2,0.2-0.3,0.2c-0.1,0-0.2-0.1-0.2-0.2c0-0.1,0-0.2,0-0.3c0-0.6,0-1.1,0-1.7c0-0.5,0-1.1,0-1.6c0-0.6-0.2-1.1-0.5-1.5
		c-0.4-0.5-0.7-1.1-1-1.6C40.3,39.1,40.3,39.1,40.2,38.9z"/>
	<path class="st3" d="M48.3,59c0.1-0.2,0.4-0.3,0.6-0.5c0.2-0.1,0.4-0.3,0.6-0.5c0.2-0.2,1.2-0.9,1.4-0.9l0,0l0,0
		c0.3,0,0.8,0.1,1.1,0.2c0.1,0,0.2,0.1,0.3,0.2c0.1,0,0.2,0.1,0.3,0.2c0.2,0.1,0.5,0.2,0.7,0.3c0.4,0.1,0.8,0.3,1.2,0.3
		c0.3,0,0.4,0.1,0.7,0.2c0.1,0,0.2,0,0.2,0.1c0.1,0,0.3,0.1,0.4,0.1c0.2,0,1.1,0.2,1.3,0.2l0.3-0.1c0.1-0.1,0.1-0.1,0-0.2
		c-0.2-0.1-0.4-0.2-0.7-0.2c-0.4-0.1-0.7-0.1-1.1-0.2c-0.3-0.1-0.6-0.2-0.9-0.2l0,0l-0.4-0.1c-0.1,0-0.3-0.1-0.4-0.1
		c0,0-0.1,0-0.1,0c-0.1,0-0.2-0.1-0.3-0.1c-0.3-0.2-0.7-0.3-1-0.4c-0.3-0.2-0.4-0.2-0.6-0.4c0,0,0,0,0,0L52,56.5l0.3-0.1
		c0.3-0.1,0.6-0.2,0.9-0.2c0.1,0,0.1,0,0.2,0c0,0,0,0,0,0c0,0,0.1,0,0.1,0c0.1,0,0.2,0,0.3-0.1l1.1-0.2c0.2,0,0.6-0.1,0.9-0.1l0.1,0
		l0,0c0,0,0.1,0,0.1,0c0,0,0,0,0,0c0-0.1,0-0.3-0.1-0.3c-0.1-0.1-0.4-0.3-0.5-0.4c-0.4-0.1-0.5-0.1-1-0.1c0,0-0.1,0-0.1,0
		c0,0,0,0.1,0.2,0.1c0,0,0,0.1-0.1,0.1c0,0-0.1,0-0.2,0c-0.1,0-0.4,0.1-0.4,0.1c0-0.1,0.1-0.1,0.1-0.2c0,0,0.1,0,0-0.1
		c0,0,0,0,0-0.1c-0.2,0-0.3-0.1-0.5-0.2c0,0-0.2,0-0.2,0c0,0,0,0,0,0c0-0.1-0.9-0.2-0.9-0.1c0,0.1-0.3,0.3-0.3,0.4
		c0,0.1-0.3,0.3-0.3,0.3c-0.1,0-0.2,0.1-0.2,0.1c-0.2,0.1-0.7,0.5-0.8,0.6C50.1,56,49.9,56,49.6,56c-0.1,0-0.3,0-0.4,0
		c-0.2,0-0.7,0.2-1.3,0.1c-0.1,0-0.1,0.1-0.2,0.1c0,0,0,0,0,0c0,0.1-0.1,0.2-0.1,0.2c0,0,0,0,0,0.1c0,0,0,0,0,0
		c0.4,0.3,0.1,0.3,0.7,0.7l0,0.1c-0.1,0.2-0.3,0.3-0.5,0.4c0,0,0,0,0,0c0,0.1,0,0.1-0.1,0.1C47.6,58,47.5,58,47.5,58
		c-0.1,0.1-0.2,0.2-0.3,0.2c0,0-0.1,0.1-0.1,0.1c-0.1,0.2-0.2,0.3-0.1,0.5c0,0.1,0.1,0.1,0.2,0.2l0.1,0.2c0.1,0.1,0.5,0.1,0.6,0
		C48.1,59.2,48.2,59.1,48.3,59L48.3,59z M31.6,52.3c-3,1.3-1.7,0.1-5.6,1.5l5.7-0.7c1.4,0.1-0.5,0.2,1.4,0.3c0,0,0.1,0,0.2,0
		c0.3-0.6-0.5-1-1.2-1.6c-0.9-0.7-1-1-2.7-1.3C29.9,51.4,30.9,51.6,31.6,52.3L31.6,52.3z M32.3,58.4c0.2-1.7,0.6-3.3,3-3.8
		c0.4,0.4,0.5,0.4,0.4,1c-2,0.2-2.4,0.4-2.5,1.7l0.4-0.4c0.7-0.7,0.7-0.7,1.8-0.9C35,56.9,33.5,57.8,32.3,58.4L32.3,58.4z
		 M38.9,57.7c-0.2,0-0.3,0-0.5,0c-0.2,0-0.1,0-0.2-0.1c-0.1-0.1-0.3-0.1-0.3-0.2l-0.1-0.1c-0.1-0.1,0.1-0.2,0.2-0.3
		c0.1,0,0.2,0,0.3,0c0,0,0,0,0,0l0,0c0,0,0,0,0,0c0.2,0,0.6,0,1.1-0.2c0.1,0,0.2-0.1,0.3-0.1c0.1,0,0.3-0.1,0.3-0.1
		c0.1-0.1,0.1-0.1,0.2-0.2c0.1-0.1,0.1-0.2,0.1-0.3c-0.1,0-0.2,0-0.3,0c-0.1,0-0.2,0-0.3,0c-0.1,0-0.1-0.1-0.2-0.1
		c-0.3-0.1-0.2-0.1-0.3-0.2c-0.1-0.1-0.1,0-0.1-0.2c0-0.1,0-0.1,0.1-0.2c0.3-0.1,0.6,0,0.9-0.1c0,0,0.2,0,0.2-0.1
		c0.1,0,0.2,0,0.3-0.1l0,0c0.1-0.1,0.1-0.3,0-0.4c-0.1-0.2-0.1-0.1-0.3-0.3c0-0.2,0-0.2,0.1-0.4c0.1-0.1,0.2-0.1,0.5-0.1
		c0.1,0,0.1,0,0.2,0l0,0c0.1,0,0.1,0,0.2,0l0,0c0.3,0.1,0.2,0.1,0.5,0.2c0.1,0,0,0,0.1,0c0,0,0,0,0,0c0.1,0.1-0.1,0,0,0
		c0.1,0,0.6,0,0.8,0c0.1,0,0.4,0.1,0.5,0.1c0.1,0.1,0.2,0.1,0.3,0.2c0.1,0.1,0.1,0.1,0.2,0.2c0,0.1,0,0.1-0.1,0.2
		c-0.2,0.1-0.3,0.1-0.5,0.2l-0.9,0.2c-0.3,0.1-0.7,0.1-0.7,0.3c0,0.1-0.1,0.2-0.1,0.2c0,0,0,0.1,0.2,0c0.3-0.1,0.7-0.2,1-0.3
		c0.1,0,0.1,0,0.2,0c0.1,0,0.1,0,0.2-0.1c0.2-0.1,0.2-0.1,0.3-0.1c0.1-0.1,0.2-0.1,0.3-0.2l0.8-0.6c0.1-0.1,0.2-0.1,0.3-0.2
		c0.2-0.2,0.4-0.4,0.6-0.5c0.1-0.1,0.3-0.2,0.4-0.3c0-0.1,0.1-0.2,0.2-0.2c0.1,0,0.1,0,0.2,0c0.1,0,0.1,0,0.2,0c0.1,0,0,0,0.1,0
		c0.3,0.1,0.4,0.2,0.5,0.4c0,0,0,0.1,0,0.1c0.1,0.1,0.1,0.1-0.1,0.2c-0.1,0-0.1,0-0.2,0c-0.1,0-0.1,0-0.2,0.1c0,0-0.1,0-0.1,0
		c0,0,0,0,0,0L46,54.6c-0.2,0.1-0.3,0.2-0.4,0.3c-0.2,0.1-0.7,0.5-0.8,0.6c-0.1,0.1-0.2,0.1-0.3,0.2c-0.1,0.1-0.2,0.1-0.3,0.2
		c-0.1,0.1,0,0.1-0.2,0.2c-0.1,0.1-0.2,0.1-0.3,0.2c-0.4,0.2-0.5,0.4-0.5,0.4c-0.1,0-0.1,0-0.1,0c-0.1,0.1-0.1,0.1-0.3,0.3
		c0,0-0.1,0.1-0.1,0.1c-0.1,0-0.1,0-0.1,0.1c-0.2,0.2-0.4,0.3-0.5,0.4c0,0-0.1,0.1-0.1,0.1c-0.1,0.1-0.4,0.2-0.4,0.4
		c0.1,0,0.2,0,0.3,0c0.1,0,0.4,0.1,0.5,0.2c0.1,0,0.1,0.1,0.2,0.1c0,0,0.4-0.2,0.5-0.2c0.1,0,0.2-0.1,0.2-0.1c0.1,0,0.1-0.1,0.2-0.1
		c0.1-0.1,0.2-0.1,0.3-0.2c0,0,0-0.1,0.1-0.1l0.2-0.1c0.1-0.1,0.3-0.1,0.4-0.1c0.1,0,0.1,0,0.2,0c0.2,0.1,0.3,0.1,0.5,0.2
		c0.1,0.1,0.1,0.1,0.1,0.2c0,0.2,0.1,0.1-0.1,0.2c-0.2,0.2-0.4,0-0.8,0.3c0,0-0.6,0.3-0.7,0.3L42.9,59c-0.2,0.1-0.6,0.3-0.8,0.4
		l-0.2,0.1c0,0-0.1,0.1-0.1,0.2c0,0.1,0.2,0.2,0.3,0.2c0.1,0,0.2,0,0.3,0c0.2,0,0.3,0,0.6,0c0.3,0,1.5-0.3,1.8-0.3
		c0.3-0.1,0.5-0.2,0.9-0.2c0,0,0,0,0.1,0.1c-0.1,0.1-0.1,0-0.1,0.1c0,0,0,0.1-0.1,0.1c-0.1,0.2-0.1,0.1-0.2,0.2
		c-0.4,0.2-0.5,0.1-0.7,0.2c-0.1,0-0.1,0.1-0.3,0.1c-0.1,0-0.3,0.1-0.4,0.1c-0.1,0-0.2,0.1-0.4,0.1c-0.1,0-0.3,0-0.5,0
		c-0.1,0-0.6,0-0.7-0.1c-0.1,0,0,0-0.2-0.1c-0.2,0-0.2-0.1-0.4-0.1c-0.1,0-0.2-0.1-0.3-0.2c-0.1,0-0.1-0.1-0.1-0.1l-0.4-0.2
		c-0.2-0.1-0.3-0.1-0.4-0.2c-0.1-0.1,0,0-0.1-0.1c0-0.1,0-0.2,0-0.3c0,0,0.1-0.1,0.1-0.2c0.1-0.3,0.3-0.2,0.3-0.4
		c-0.2,0-0.3,0.2-0.4,0.3c-0.1,0.1-0.1,0.1-0.2,0.2l-0.4,0.3c-0.2,0.1-0.3,0.3-0.5,0.4c-0.1,0.1-0.1,0.1-0.2,0.2
		c-0.2,0.1-0.4,0.3-0.5,0.4l-0.9,0.7c0,0-0.1,0.1-0.1,0.1c-0.2,0.2-0.5,0.3-0.7,0.6c-0.1,0.2-0.5,0.5-0.7,0.6
		c-0.1,0-0.6,0.4-0.6,0.4c0,0,0,0,0,0c-0.5,0.8-0.7,1.9-1.9,2.1c-0.8-0.8,0.6-1.2,0.9-2.2c-1.9,0.2-2.1,1-3.7,0.9
		c-0.3-1,1.3-1.2,2.3-1.8c0.9-0.6,0.3,0,0.7-0.6c-2,0.4-2.7,1.3-4.7,0.7c0.4-1.1,2.7-1.3,3.7-2.1c-3.7,0.7-4.9,2.5-5.6,2.5
		c-1.4-0.8,1.6-1.8,2.5-2.3c-0.1-1.7-0.7-1.6,0.8-3.1c0.8-0.8,2.2-1.4,2.1-2.3c-1.2,0.1-2.5,1-3,1.5c-1.6,1.5-3.2,2.7-4.5,4.4
		c-0.5,0.6-0.9,2.1-1.7,2.2c-0.8-0.3-1.1-0.1-0.5-1c0.9-1.5,4.5-4,6.1-6.4c-1.2,0-1.8,0.2-2.8,0.4c-1.5,0.2-2.8,0.4-4.3,0.7
		c-2.2,0.4-6.9,1.9-8,0c0.9-0.8,4.6-1.5,6.2-1.8c-0.4,0.3,0.1,0.1-0.7,0.4c-0.1,0-0.6,0.2-0.6,0.2c-0.3,0.1-0.9,0.2-1.3,0.3
		c-1.1,0.3-1.6,0.4-2.6,0.8l0.7,0.2c1.8,0.3,6.6-0.7,8.4-0.9c2-0.3,4.8-1.2,6.6-0.6c0.6-0.5,1-0.8,1.9-1.1c1,0.3,0.5,0.1,1.2,0.5
		c1.6-0.3,4.2-1.3,2.3,2.6c-1.1,2.3-2.6,0.8-4.2,2.5c1.3-0.2,2.7-0.7,4.1-0.9l1.4,0.1c-0.5,0.5-4.4,1.1-6.2,2.4
		c1.3-0.1,2.3-0.6,3.6-0.4c0.5,0.9-0.8,0.8-1.2,1.7c0.9-0.2,1.1-0.2,1.3-0.2c0.2-0.2,0.7-0.5,0.7-0.5c0,0,0.3-0.3,0.4-0.3
		c0,0,0.4-0.3,0.4-0.3c0,0,0.2-0.1,0.4-0.2l0,0c0,0,0.1-0.1,0.1-0.1l1-0.7c0.1,0,0.1-0.1,0.1-0.1l1.1-0.9c0.2-0.1,0.2-0.1,0.3-0.3
		c0,0,0.1-0.1,0.2-0.1c0.1-0.1,0.1,0,0.2-0.1c0.1-0.1,0.3-0.3,0.5-0.4c0.1-0.1,0.1-0.1,0.2-0.1l0.3-0.3c0.1-0.1,0.2-0.2,0.3-0.3
		c0.1-0.1,0.1,0,0.2-0.1c0.1-0.1,0.1-0.1,0.1-0.2c0.1-0.1,0.1,0,0.2-0.1c0.1-0.1,0.4-0.3,0.5-0.4c-0.1,0-0.1,0-0.2,0
		c-0.1,0-0.1,0-0.2,0c-0.1,0-0.1,0-0.2,0.1c-0.2,0-0.4,0.1-0.6,0.2c-0.2,0.1-0.9,0.2-1.2,0.3C39.2,57.6,39.3,57.5,38.9,57.7
		L38.9,57.7L38.9,57.7z M30.1,59.5c1.2,0,1.3-0.7,1.6-1.4c0.2-0.4,0.2-0.7,0.4-1.1c0.3-1.2,0.1-0.8-0.1-1
		C31.2,57.1,29.7,57.9,30.1,59.5L30.1,59.5z"/>
</g>
</svg>
